<svg width="20" height="20" viewBox="0 0 20 20" fill="none" xmlns="http://www.w3.org/2000/svg">
<path d="M18.9697 1.06575C18.3788 0.478816 17.5798 0.149414 16.7469 0.149414C15.914 0.149414 15.1149 0.478816 14.524 1.06575L0.941171 14.6486C0.813765 14.7802 0.729967 14.9478 0.701171 15.1286L0.124028 18.94C0.105081 19.0621 0.112759 19.1869 0.146534 19.3058C0.18031 19.4246 0.239386 19.5348 0.319712 19.6287C0.400038 19.7226 0.499716 19.798 0.611914 19.8498C0.724111 19.9015 0.846176 19.9284 0.969742 19.9286H1.10117L4.90689 19.3572C5.08774 19.3284 5.25534 19.2446 5.38689 19.1172L18.9697 5.51146C19.5567 4.92055 19.8861 4.12148 19.8861 3.28861C19.8861 2.45574 19.5567 1.65667 18.9697 1.06575ZM4.37546 17.6829L1.9926 18.0429L2.3526 15.66L13.5069 4.51146L15.524 6.52861L4.37546 17.6829ZM17.7583 4.30003L16.3355 5.72289L14.3126 3.70003L15.7355 2.27718C16.0037 2.00893 16.3675 1.85823 16.7469 1.85823C17.1262 1.85823 17.4901 2.00893 17.7583 2.27718C18.0266 2.54543 18.1773 2.90925 18.1773 3.28861C18.1773 3.66797 18.0266 4.03179 17.7583 4.30003Z" fill="#231F20"/>
</svg>
