<svg width="32" height="26" viewBox="0 0 32 26" fill="none" xmlns="http://www.w3.org/2000/svg">
<path d="M24.3199 14.4032V18.9564C24.3199 20.0923 23.9134 21.0636 23.1004 21.8702C22.2874 22.6767 21.3085 23.08 20.1636 23.08H8.15634C7.01143 23.08 6.03247 22.6767 5.21948 21.8702C4.40649 21.0636 4 20.0923 4 18.9564V7.04368C4 5.90777 4.40649 4.93652 5.21948 4.12993C6.03247 3.32334 7.01143 2.92004 8.15634 2.92004H20.1636C20.7697 2.92004 21.3325 3.03936 21.8521 3.278C21.9964 3.34482 22.083 3.45459 22.1118 3.60732C22.1407 3.76959 22.0974 3.908 21.982 4.02254L21.2748 4.72413C21.1786 4.81959 21.0679 4.86732 20.9429 4.86732C20.914 4.86732 20.8707 4.85777 20.813 4.83868C20.5917 4.78141 20.3752 4.75277 20.1636 4.75277H8.15634C7.52135 4.75277 6.97775 4.97709 6.52556 5.42573C6.07336 5.87436 5.84726 6.41368 5.84726 7.04368V18.9564C5.84726 19.5864 6.07336 20.1257 6.52556 20.5744C6.97775 21.023 7.52135 21.2473 8.15634 21.2473H20.1636C20.7986 21.2473 21.3422 21.023 21.7943 20.5744C22.2465 20.1257 22.4726 19.5864 22.4726 18.9564V15.3196C22.4726 15.1955 22.5159 15.0905 22.6025 15.0046L23.5262 14.0882C23.6224 13.9928 23.733 13.945 23.8581 13.945C23.9158 13.945 23.9735 13.9594 24.0313 13.988C24.2237 14.0644 24.3199 14.2028 24.3199 14.4032ZM27.6536 7.40163L15.9062 19.0566C15.6753 19.2857 15.4011 19.4003 15.0836 19.4003C14.7661 19.4003 14.4919 19.2857 14.261 19.0566L8.05532 12.8998C7.82441 12.6707 7.70896 12.3987 7.70896 12.0837C7.70896 11.7687 7.82441 11.4966 8.05532 11.2675L9.64281 9.69254C9.87372 9.46345 10.1479 9.34891 10.4654 9.34891C10.7829 9.34891 11.0571 9.46345 11.288 9.69254L15.0836 13.4582L24.4209 4.19436C24.6518 3.96527 24.926 3.85073 25.2435 3.85073C25.561 3.85073 25.8352 3.96527 26.0661 4.19436L27.6536 5.76936C27.8845 5.99845 28 6.2705 28 6.5855C28 6.9005 27.8845 7.17254 27.6536 7.40163Z" fill="#54AF49"/>
</svg>
