<svg width="35" height="35" viewBox="0 0 35 35" fill="none" xmlns="http://www.w3.org/2000/svg">
<g filter="url(#filter0_iiiii_69_450)">
<rect width="35" height="35" rx="17.5" fill="#2DCA50"/>
<rect width="35" height="35" rx="17.5" fill="url(#paint0_radial_69_450)" fill-opacity="0.7"/>
</g>
<path d="M24.9182 19.4937C24.521 19.492 24.1407 19.3329 23.8607 19.0512L17.4182 12.6162L10.9757 19.0512C10.6887 19.2969 10.3196 19.4253 9.94211 19.4108C9.56459 19.3962 9.20648 19.2397 8.93934 18.9725C8.6722 18.7054 8.5157 18.3473 8.50112 17.9698C8.48654 17.5923 8.61495 17.2231 8.86069 16.9362L16.3607 9.43619C16.6417 9.15681 17.0219 9 17.4182 9C17.8145 9 18.1946 9.15681 18.4757 9.43619L25.9757 16.9362C26.1842 17.1459 26.326 17.4127 26.3834 17.7028C26.4408 17.9929 26.4111 18.2936 26.2981 18.5669C26.185 18.8402 25.9938 19.074 25.7482 19.2389C25.5027 19.4038 25.2139 19.4924 24.9182 19.4937Z" fill="white"/>
<path d="M24.9182 25.9873C24.521 25.9857 24.1407 25.8265 23.8607 25.5448L17.4182 19.1098L10.9757 25.5448C10.6887 25.7906 10.3196 25.919 9.94211 25.9044C9.56459 25.8898 9.20648 25.7333 8.93934 25.4662C8.6722 25.199 8.5157 24.8409 8.50112 24.4634C8.48654 24.0859 8.61495 23.7168 8.86069 23.4298L16.3607 15.9298C16.6417 15.6505 17.0219 15.4937 17.4182 15.4937C17.8145 15.4937 18.1946 15.6505 18.4757 15.9298L25.9757 23.4298C26.1842 23.6396 26.326 23.9063 26.3834 24.1964C26.4408 24.4866 26.4111 24.7872 26.2981 25.0605C26.185 25.3338 25.9938 25.5676 25.7482 25.7325C25.5027 25.8975 25.2139 25.9861 24.9182 25.9873Z" fill="white"/>
<defs>
<filter id="filter0_iiiii_69_450" x="-3.88889" y="-4.66667" width="41.2222" height="43.1667" filterUnits="userSpaceOnUse" color-interpolation-filters="sRGB">
<feFlood flood-opacity="0" result="BackgroundImageFix"/>
<feBlend mode="normal" in="SourceGraphic" in2="BackgroundImageFix" result="shape"/>
<feColorMatrix in="SourceAlpha" type="matrix" values="0 0 0 0 0 0 0 0 0 0 0 0 0 0 0 0 0 0 127 0" result="hardAlpha"/>
<feOffset dx="1.16667" dy="1.55556"/>
<feGaussianBlur stdDeviation="1.55556"/>
<feComposite in2="hardAlpha" operator="arithmetic" k2="-1" k3="1"/>
<feColorMatrix type="matrix" values="0 0 0 0 1 0 0 0 0 1 0 0 0 0 1 0 0 0 0.7 0"/>
<feBlend mode="normal" in2="shape" result="effect1_innerShadow_69_450"/>
<feColorMatrix in="SourceAlpha" type="matrix" values="0 0 0 0 0 0 0 0 0 0 0 0 0 0 0 0 0 0 127 0" result="hardAlpha"/>
<feOffset dx="-3.88889" dy="-4.66667"/>
<feGaussianBlur stdDeviation="3.5"/>
<feComposite in2="hardAlpha" operator="arithmetic" k2="-1" k3="1"/>
<feColorMatrix type="matrix" values="0 0 0 0 0 0 0 0 0 0 0 0 0 0 0 0 0 0 0.25 0"/>
<feBlend mode="normal" in2="effect1_innerShadow_69_450" result="effect2_innerShadow_69_450"/>
<feColorMatrix in="SourceAlpha" type="matrix" values="0 0 0 0 0 0 0 0 0 0 0 0 0 0 0 0 0 0 127 0" result="hardAlpha"/>
<feOffset dy="0.777778"/>
<feGaussianBlur stdDeviation="0.388889"/>
<feComposite in2="hardAlpha" operator="arithmetic" k2="-1" k3="1"/>
<feColorMatrix type="matrix" values="0 0 0 0 1 0 0 0 0 1 0 0 0 0 1 0 0 0 0.6 0"/>
<feBlend mode="normal" in2="effect2_innerShadow_69_450" result="effect3_innerShadow_69_450"/>
<feColorMatrix in="SourceAlpha" type="matrix" values="0 0 0 0 0 0 0 0 0 0 0 0 0 0 0 0 0 0 127 0" result="hardAlpha"/>
<feOffset dx="2.33333" dy="3.5"/>
<feGaussianBlur stdDeviation="1.75"/>
<feComposite in2="hardAlpha" operator="arithmetic" k2="-1" k3="1"/>
<feColorMatrix type="matrix" values="0 0 0 0 1 0 0 0 0 1 0 0 0 0 1 0 0 0 0.1 0"/>
<feBlend mode="normal" in2="effect3_innerShadow_69_450" result="effect4_innerShadow_69_450"/>
<feColorMatrix in="SourceAlpha" type="matrix" values="0 0 0 0 0 0 0 0 0 0 0 0 0 0 0 0 0 0 127 0" result="hardAlpha"/>
<feOffset dy="-1.16667"/>
<feGaussianBlur stdDeviation="1.55556"/>
<feComposite in2="hardAlpha" operator="arithmetic" k2="-1" k3="1"/>
<feColorMatrix type="matrix" values="0 0 0 0 1 0 0 0 0 1 0 0 0 0 1 0 0 0 0.25 0"/>
<feBlend mode="normal" in2="effect4_innerShadow_69_450" result="effect5_innerShadow_69_450"/>
</filter>
<radialGradient id="paint0_radial_69_450" cx="0" cy="0" r="1" gradientUnits="userSpaceOnUse" gradientTransform="translate(11.1885 6.88525) rotate(55.9679) scale(26.6556 26.6556)">
<stop stop-color="white"/>
<stop offset="0.697917" stop-color="white" stop-opacity="0"/>
<stop offset="1" stop-color="white" stop-opacity="0"/>
</radialGradient>
</defs>
</svg>
