<svg width="20" height="19" viewBox="0 0 20 19" fill="none" xmlns="http://www.w3.org/2000/svg">
<path d="M6.48029 0.5C5.80285 0.5 3.76047 1.51182 3.39405 1.71403C3.02763 1.91624 2.62091 2.54748 2.15943 3.58929C1.69731 4.6311 1.32648 5.84897 0.723965 7.64042C0.122079 9.43187 -0.0183191 12.8856 0.00182771 13.9397C0.0219745 14.9938 0.12082 15.8173 1.00539 16.4408C1.88933 17.0636 2.67128 17.7156 3.49415 18.1077C4.31765 18.4998 4.87925 18.782 5.26078 18.3899C5.64231 17.9978 5.89351 17.3112 5.89351 17.3112C5.89351 17.3112 6.2549 16.6984 5.57242 16.3309C4.88995 15.9626 4.54871 15.705 4.5783 15.3252C4.60852 14.9454 4.65826 14.737 4.82888 14.7862C4.9995 14.8354 5.4018 15.7173 6.94744 16.1217C8.49308 16.5262 9.99969 16.4654 9.99969 16.4654C9.99969 16.4654 11.5069 16.5269 13.0526 16.1217C14.5982 15.7173 14.9999 14.8354 15.1705 14.7862C15.3411 14.737 15.3908 14.9454 15.4211 15.3244C15.4513 15.705 15.1101 15.9626 14.4276 16.3309C13.7451 16.6984 14.1065 17.3112 14.1065 17.3112C14.1065 17.3112 14.3577 17.997 14.7392 18.3899C15.1201 18.782 15.6823 18.4998 16.5052 18.1077C17.3281 17.7156 18.1107 17.0644 18.9946 16.4408C19.8792 15.8173 19.978 14.9938 19.9982 13.9397C20.0183 12.8864 19.8779 9.43187 19.2754 7.64042C18.6735 5.84897 18.3021 4.6311 17.8399 3.58929C17.3791 2.54748 16.9717 1.91624 16.606 1.71326C16.2395 1.51182 14.1965 0.5 13.5191 0.5C12.8416 0.5 12.6414 1.07665 12.6414 1.07665L12.4053 1.71403C12.4053 1.71403 10.8188 1.34575 10.0104 1.34498C9.202 1.34498 7.59466 1.71403 7.59466 1.71403L7.35856 1.07588C7.35856 1.07588 7.15836 0.5 6.48029 0.5ZM6.55395 8.14864H6.57913C7.56696 8.14864 8.36716 9.20429 8.36716 10.506C8.36716 11.8084 7.56696 12.8633 6.57913 12.8633C5.59131 12.8633 4.7911 11.8084 4.7911 10.506C4.79047 9.21659 5.5762 8.16632 6.55395 8.14864ZM13.4209 8.14864H13.4461C14.4238 8.16632 15.2089 9.21736 15.2089 10.506C15.2089 11.8084 14.4087 12.8633 13.4209 12.8633C12.4324 12.8633 11.6328 11.8084 11.6328 10.506C11.6328 9.20429 12.4324 8.14864 13.4209 8.14864Z" fill="#5865F2"/>
</svg>
