<svg width="22" height="23" viewBox="0 0 22 23" fill="none" xmlns="http://www.w3.org/2000/svg">
<path d="M19 1.03906H8.33337C7.80294 1.03906 7.29423 1.24978 6.91916 1.62485C6.54409 1.99992 6.33337 2.50863 6.33337 3.03906V8.3724C6.33337 8.54921 6.40361 8.71878 6.52864 8.8438C6.65366 8.96882 6.82323 9.03906 7.00004 9.03906C7.17685 9.03906 7.34642 8.96882 7.47144 8.8438C7.59647 8.71878 7.66671 8.54921 7.66671 8.3724V3.03906C7.66671 2.86225 7.73695 2.69268 7.86197 2.56766C7.98699 2.44263 8.15656 2.3724 8.33337 2.3724H17.768L14.1014 3.74773C13.9738 3.79507 13.8638 3.88029 13.7862 3.99195C13.7085 4.10361 13.6668 4.23636 13.6667 4.3724V17.7057C13.6666 17.8415 13.708 17.9741 13.7853 18.0857C13.8627 18.1974 13.9722 18.2827 14.0994 18.3304L17.768 19.7057H8.33337C8.15656 19.7057 7.98699 19.6355 7.86197 19.5105C7.73695 19.3854 7.66671 19.2159 7.66671 19.0391V13.7057C7.66671 13.5289 7.59647 13.3593 7.47144 13.2343C7.34642 13.1093 7.17685 13.0391 7.00004 13.0391C6.82323 13.0391 6.65366 13.1093 6.52864 13.2343C6.40361 13.3593 6.33337 13.5289 6.33337 13.7057V19.0391C6.33337 19.5695 6.54409 20.0782 6.91916 20.4533C7.29423 20.8284 7.80294 21.0391 8.33337 21.0391H19C19.5305 21.0391 20.0392 20.8284 20.4143 20.4533C20.7893 20.0782 21 19.5695 21 19.0391V3.03906C21 2.50863 20.7893 1.99992 20.4143 1.62485C20.0392 1.24978 19.5305 1.03906 19 1.03906ZM15 4.8344L19.6667 3.0844V18.9937L15 17.2437V4.8344Z" fill="black"/>
<path d="M8.52867 12.5675C8.46499 12.629 8.41421 12.7026 8.37927 12.7839C8.34433 12.8652 8.32594 12.9527 8.32517 13.0412C8.3244 13.1298 8.34127 13.2175 8.37479 13.2995C8.40831 13.3814 8.45781 13.4558 8.5204 13.5184C8.583 13.581 8.65743 13.6305 8.73936 13.6641C8.8213 13.6976 8.90908 13.7144 8.9976 13.7137C9.08612 13.7129 9.1736 13.6945 9.25494 13.6596C9.33627 13.6246 9.40984 13.5739 9.47133 13.5102L11.4713 11.5102C11.5963 11.3852 11.6665 11.2156 11.6665 11.0388C11.6665 10.8621 11.5963 10.6925 11.4713 10.5675L9.47133 8.56751C9.3456 8.44607 9.1772 8.37888 9.0024 8.3804C8.8276 8.38192 8.66039 8.45203 8.53679 8.57563C8.41318 8.69924 8.34307 8.86645 8.34155 9.04124C8.34003 9.21604 8.40723 9.38444 8.52867 9.51018L9.39067 10.3722H1.66667C1.48986 10.3722 1.32029 10.4424 1.19526 10.5674C1.07024 10.6925 1 10.862 1 11.0388C1 11.2157 1.07024 11.3852 1.19526 11.5103C1.32029 11.6353 1.48986 11.7055 1.66667 11.7055H9.39067L8.52867 12.5675Z" fill="black"/>
</svg>
