<svg width="26" height="20" viewBox="0 0 26 20" fill="none" xmlns="http://www.w3.org/2000/svg">
<path d="M15.6812 13.7188C14.4335 14.0177 13.1778 14.1253 11.9255 13.9753C12.289 14.3817 12.6343 14.8041 12.9282 15.2728C13.124 15.5853 12.7062 15.7897 12.5336 15.6787C11.7008 15.1715 10.9501 14.5555 10.2741 13.8603C10.0743 13.656 10.1015 13.2427 10.307 13.0655C10.9858 12.3946 11.7195 11.7877 12.5404 11.289C12.696 11.1786 13.1744 11.3139 12.9355 11.6943C12.6343 12.1704 12.2828 12.6001 11.9108 13.0134C13.1659 12.8271 14.4261 12.8481 15.6812 13.1527C16.0634 13.2455 15.8534 13.6763 15.6812 13.7188ZM25.9169 19.1503C25.9135 19.4129 25.6984 19.6235 25.4357 19.6218C22.8349 19.5454 20.1497 19.6807 17.5716 19.4101C17.4102 19.623 17.203 19.2861 17.1889 18.5711C17.1475 17.1212 17.0451 13.4482 17.0303 12.0481L17.0151 10.9612C16.8707 9.51924 17.7935 7.91483 19.2315 7.47042C16.39 5.61068 17.4436 0.42662 21.535 0.404541C25.6282 0.580041 26.6246 5.6186 23.7616 7.46192C24.8984 7.88086 25.8014 8.91688 25.9588 10.142C26.0737 12.5152 25.9112 16.7363 25.9169 19.1503ZM20.3139 7.26718C21.1003 7.21453 21.9183 7.29209 22.6594 7.26095C23.8182 6.68576 24.5763 5.42499 24.4138 4.20667C23.9462 0.727236 19.0973 0.642316 18.6161 4.16025C18.4468 5.42669 19.1794 6.69708 20.3139 7.26718ZM24.9488 18.6758C24.9245 16.7584 24.8792 13.0083 24.8786 11.5001C25.0484 9.92346 24.3408 8.42718 22.6243 8.37679C22.2863 8.35415 21.355 8.36887 21.004 8.3632L20.4532 8.35245C19.3939 8.28848 18.3936 9.0052 18.0992 10.0208C17.9333 10.5071 18.0041 11.5007 17.9679 12.0493C17.9124 13.6599 17.8467 17.3737 17.7091 19.007C20.101 18.7647 22.545 18.784 24.9488 18.6758ZM14.0621 7.1313C13.6902 7.55987 13.3392 8.00937 13.0346 8.5053C12.8042 8.88857 13.2803 9.01822 13.4348 8.90556C14.2591 8.39264 14.9617 7.75745 15.6343 7.09337C15.8511 6.87881 15.8579 6.52951 15.6478 6.30702C14.9798 5.62427 14.2874 4.96246 13.4592 4.44445C13.1297 4.23838 12.9491 4.69072 13.0589 4.8447C13.342 5.32025 13.6658 5.75391 14.01 6.16775C12.7515 6.0132 11.4896 6.10208 10.2356 6.401C10.0613 6.44346 9.88011 6.87881 10.2356 6.96713C11.5066 7.28133 12.7866 7.31586 14.0621 7.1313ZM8.9375 10.7359C8.88032 12.9387 8.95279 16.7317 8.7269 18.9623C9.00544 19.122 8.66123 19.3541 7.91847 19.3807C5.44221 19.5064 2.96539 19.6003 0.489137 19.6734C0.224754 19.6813 0.00509516 19.469 0.0039629 19.2046C-0.00566132 19.2063 0.00679357 14.2187 0 14.2142C0.0254759 13.2976 -0.00622742 11.3552 0.0305711 10.4528C0.0634066 9.08559 1.01507 7.90464 2.2532 7.45287C-0.529332 5.62087 0.454603 0.521164 4.47922 0.452096C8.5214 0.495122 9.50703 5.6588 6.68713 7.47495C8.02603 7.93747 9.02016 9.29675 8.9375 10.7359ZM3.35206 7.25755C4.05916 7.28586 4.824 7.2819 5.56506 7.30058C7.41688 6.46837 7.96942 3.72376 6.38425 2.32316C4.71587 0.720442 1.82124 1.91158 1.6582 4.19762C1.50194 5.45329 2.22603 6.70274 3.35206 7.25755ZM8.30966 18.8474C8.12058 17.166 8.07019 13.4839 7.99206 11.824L7.96149 10.7381C7.96885 9.81873 7.44292 8.9667 6.6124 8.59475C5.73547 8.21318 4.57377 8.44643 3.61984 8.37849C2.73158 8.31282 1.82747 8.74421 1.41872 9.55887C1.05414 10.2269 1.1651 10.9668 1.13283 11.7277C1.11358 13.2897 1.02526 17.0992 0.986199 18.7081C3.42169 18.7421 5.87757 18.7189 8.30966 18.8474Z" fill="black"/>
</svg>
