<svg enable-background="new 0 0 64 64" viewBox="0 0 64 64" xmlns="http://www.w3.org/2000/svg"><g id="Layer_1"/><g id="Badge"/><g id="Basketball_Trophy"/><g id="Certificate_00000155142465879896954940000007463677100507110064_"/><g id="Star_Badge"/><g id="Police_Badge"/><g id="Flag"/><g id="Medal_00000057864904577975597920000015771584254612611517_"/><g id="Tophy_Award"/><g id="Medal_00000142146757898845982370000005096811746825199502_"/><g id="Certificate"/><g id="Star_Trophy"/><g id="Award"/><g id="Third_Position"><g><g clip-rule="evenodd" fill-rule="evenodd"><path d="m33.813 45.845-7.461 16c-.312.669-.966 1.111-1.703 1.152-.736.041-1.435-.327-1.819-.958l-4.928-8.102-9.374 1.433c-.729.111-1.461-.188-1.903-.778s-.524-1.376-.212-2.044l7.342-15.745c.461-.99 1.632-1.426 2.629-.98l16.433 7.351c.489.219.87.625 1.057 1.127s.165 1.059-.061 1.544z" fill="#8954dd"/><path d="m31.87 50-5.05 10.85c-.4-.16-.76-.43-.99-.81l-4.93-8.1-9.37 1.43c-.73.11-1.46-.19-1.91-.78-.44-.59-.52-1.37-.21-2.04l2.78-5.962c.549-1.178 2.075-1.547 3.068-.709 4.495 3.79 10.288 6.086 16.612 6.121z" fill="#a47af4"/><path d="m31.183 43.174 16.433-7.351c.997-.446 2.168-.01 2.629.98l7.342 15.745c.312.668.23 1.454-.212 2.044s-1.174.889-1.903.778l-9.374-1.433-4.928 8.102c-.384.631-1.083.999-1.819.958-.737-.041-1.391-.483-1.703-1.152l-7.461-16c-.226-.485-.248-1.042-.061-1.544s.568-.908 1.057-1.127z" fill="#8954dd"/><path d="m56.51 50.25c-.32.13-.68.17-1.04.12l-9.37-1.43-4.93 8.1c-.38.63-1.08 1-1.82.96s-1.39-.49-1.7-1.16l-2.106-4.517c-.556-1.193.182-2.554 1.473-2.807 5.985-1.172 11.239-4.402 14.993-8.926z" fill="#a47af4"/><path d="m32 3c11.59 0 21 9.41 21 21s-9.41 21-21 21-21-9.41-21-21 9.41-21 21-21z" fill="#b2530d"/><path d="m32 3c-4.775 0-9.166 1.616-12.695 4.305-2.689 3.529-4.305 7.92-4.305 12.695 0 11.59 9.41 21 21 21 4.775 0 9.166-1.616 12.695-4.305 2.689-3.529 4.305-7.92 4.305-12.695 0-11.59-9.41-21-21-21z" fill="#c15c08"/><path d="m32 1c12.694 0 23 10.306 23 23s-10.306 23-23 23-23-10.306-23-23 10.306-23 23-23zm0 4c-10.486 0-19 8.514-19 19s8.514 19 19 19 19-8.514 19-19-8.514-19-19-19z" fill="#df781b"/><path d="m32 1c-4.276 0-8.279 1.173-11.711 3.21-4.483 4.197-7.289 10.164-7.289 16.79 0 .563.027 1.119.067 1.672.686-9.865 8.895-17.672 18.933-17.672 10.486 0 19 8.514 19 19s-8.514 19-19 19c-1.371 0-2.705-.153-3.993-.429 2.489.923 5.182 1.429 7.993 1.429 4.266 0 8.259-1.166 11.684-3.19 4.498-4.2 7.316-10.177 7.316-16.81 0-12.694-10.306-23-23-23z" fill="#fcb043"/><path d="m39.237 6.429c-1.021-.422-1.507-1.592-1.086-2.612.422-1.021 1.592-1.507 2.612-1.086 5.468 2.257 9.877 6.563 12.271 11.958.448 1.009-.008 2.191-1.017 2.639s-2.192-.008-2.639-1.017c-1.978-4.459-5.623-8.017-10.141-9.882z" fill="#f9d19d"/><path d="m50.915 22.188c-.104-1.098.703-2.075 1.802-2.179s2.076.704 2.18 1.803c.068.72.103 1.45.103 2.188 0 1.104-.896 2-2 2s-2-.896-2-2c0-.611-.029-1.215-.085-1.812z" fill="#f9d19d"/></g><circle cx="32" cy="24" fill="#df781b" r="16"/><path d="m32 8c-2.69 0-5.23.68-7.46 1.86-2.8 2.88-4.54 6.81-4.54 11.14 0 8.82 7.18 16 16 16 2.69 0 5.23-.68 7.46-1.86 2.8-2.88 4.54-6.81 4.54-11.14 0-8.82-7.18-16-16-16zm5.25 19.25c0 2.895-2.355 5.25-5.25 5.25-2.123 0-4.025-1.267-4.846-3.228-.426-1.019.054-2.19 1.073-2.617 1.017-.429 2.19.054 2.617 1.073.196.469.65.772 1.156.772.689 0 1.25-.561 1.25-1.25s-.561-1.25-1.25-1.25c-1.104 0-2-.896-2-2s.896-2 2-2c.689 0 1.25-.561 1.25-1.25s-.561-1.25-1.25-1.25c-.506 0-.959.302-1.154.77-.426 1.019-1.596 1.5-2.617 1.075-1.019-.426-1.5-1.597-1.075-2.617.82-1.961 2.721-3.228 4.846-3.228 2.895 0 5.25 2.355 5.25 5.25 0 1.226-.423 2.355-1.13 3.25.707.895 1.13 2.024 1.13 3.25z" fill="#fcb043"/><path d="m46 26c-1.104 0-2-.896-2-2 0-4.61-2.692-8.867-6.858-10.846-.998-.474-1.422-1.667-.948-2.665s1.665-1.422 2.665-.948c5.553 2.638 9.141 8.313 9.141 14.459 0 1.104-.896 2-2 2z" fill="#f9d19d"/></g></g><g id="Second_Position"/><g id="Winner"/><g id="Diploma"/><g id="Trophy"/><g id="Medal_00000005238149921129290700000016698065652002176917_"/><g id="Medal_00000142871562636648070520000015215049010245528497_"/><g id="Medal"/><g id="Layer_22" display="none"/></svg>