<svg width="256" height="256" viewBox="0 0 256 256" fill="none" xmlns="http://www.w3.org/2000/svg">
<g clip-path="url(#clip0_16090_6294)">
<path d="M128 256C198.692 256 256 198.692 256 128C256 57.3076 198.692 0 128 0C57.3076 0 0 57.3076 0 128C0 198.692 57.3076 256 128 256Z" fill="#BDC5D1"/>
<path d="M150.082 154.418C110.192 166.397 77.1937 183.872 56.5327 204.345L55.6211 205.257C61.1165 210.454 67.1401 215.106 73.6494 219.059L75.0467 217.347C80.6869 210.454 86.7361 203.8 93.0324 197.529C109.936 180.685 129.276 166.107 150.099 154.401L150.074 154.418H150.082Z" fill="white"/>
<path d="M23.0078 136.671C24.6011 158.03 32.5332 177.618 44.9809 193.55L45.5518 192.979C58.3402 180.361 74.9882 168.893 95.0699 158.899C112.672 150.132 132.882 142.609 154.667 136.671H23.0078Z" fill="white"/>
<path d="M104.194 48.8807C139.884 84.4432 184.802 107.958 234.073 116.879C228.126 64.1571 183.251 23.1417 128.732 23.1417C114.333 23.1417 100.607 26.013 88.0742 31.1931C93.1607 37.3191 98.5964 43.2831 104.194 48.8807Z" fill="white"/>
<path d="M56.5359 53.2345C77.1969 73.7336 110.195 91.1825 150.086 103.187C129.263 91.4637 109.922 76.903 93.0186 60.059C86.7393 53.8053 80.6986 47.1512 75.0328 40.2415L73.6356 38.5289C67.1263 42.4822 61.1027 47.1256 55.6328 52.3228L56.5445 53.2345H56.5359Z" fill="white"/>
<path d="M104.194 208.699C98.5709 214.296 93.1436 220.26 88.0742 226.386C100.59 231.566 114.333 234.438 128.732 234.438C183.26 234.438 228.134 193.422 234.09 140.684C184.827 149.604 139.91 173.119 104.211 208.682L104.194 208.699Z" fill="white"/>
<path d="M95.0699 98.6801C74.9883 88.6862 58.3402 77.2097 45.5518 64.6001L44.981 64.0293C32.5332 79.9617 24.6011 99.5492 23.0078 120.909H154.642C132.865 114.97 112.672 107.447 95.0443 98.6544L95.0614 98.6801H95.0699Z" fill="white"/>
</g>
<defs>
<clipPath id="clip0_16090_6294">
<rect width="256" height="256" fill="white"/>
</clipPath>
</defs>
</svg>
